<svg data-dc-tpl="117" xmlns="http://www.w3.org/2000/svg" viewBox="0 0 200 200" data-om-id="8aa0e4ef:122"><defs data-dc-tpl="118" data-om-id="8aa0e4ef:123"><filter data-dc-tpl="119" id="f44ahs" x="-50%" y="-50%" width="200%" height="200%" data-om-id="8aa0e4ef:124"><feGaussianBlur data-dc-tpl="120" stdDeviation="5" data-om-id="8aa0e4ef:125"></feGaussianBlur></filter></defs><rect data-dc-tpl="121" x="64" y="10" width="26" height="80" rx="13" transform="rotate(-10 77 90)" fill="#f4f4f5" data-om-id="8aa0e4ef:126"></rect><rect data-dc-tpl="122" x="110" y="10" width="26" height="80" rx="13" transform="rotate(10 123 90)" fill="#f4f4f5" data-om-id="8aa0e4ef:127"></rect><rect data-dc-tpl="123" x="71" y="22" width="12" height="50" rx="6" transform="rotate(-10 77 90)" fill="#d4d4d8" data-om-id="8aa0e4ef:128"></rect><rect data-dc-tpl="124" x="117" y="22" width="12" height="50" rx="6" transform="rotate(10 123 90)" fill="#d4d4d8" data-om-id="8aa0e4ef:129"></rect><circle data-dc-tpl="125" cx="100" cy="122" r="62" fill="#f4f4f5" data-om-id="8aa0e4ef:130"></circle><rect data-dc-tpl="126" x="50" y="100" width="100" height="42" rx="21" fill="#0e0e10" data-om-id="8aa0e4ef:131"></rect><g data-dc-tpl="127" filter="url(#f44ahs)" fill="#2dd4bf" data-om-id="8aa0e4ef:132"><ellipse data-dc-tpl="128" cx="79" cy="121" rx="11" ry="8" data-om-id="8aa0e4ef:133"></ellipse><ellipse data-dc-tpl="129" cx="121" cy="121" rx="11" ry="8" data-om-id="8aa0e4ef:134"></ellipse></g><g data-dc-tpl="130" fill="#a7f3d0" data-om-id="8aa0e4ef:135"><ellipse data-dc-tpl="131" cx="79" cy="121" rx="8" ry="5.5" data-om-id="8aa0e4ef:136"></ellipse><ellipse data-dc-tpl="132" cx="121" cy="121" rx="8" ry="5.5" data-om-id="8aa0e4ef:137"></ellipse></g></svg>